<?xml version="1.0" standalone="no"?><!DOCTYPE svg PUBLIC "-//W3C//DTD SVG 1.1//EN" "http://www.w3.org/Graphics/SVG/1.1/DTD/svg11.dtd"><svg t="1604273883819" class="icon" viewBox="0 0 1024 1024" version="1.1" xmlns="http://www.w3.org/2000/svg" p-id="2550" xmlns:xlink="http://www.w3.org/1999/xlink" width="128" height="128"><defs><style type="text/css"></style></defs><path d="M484.11 725.49c-83.79 0-162.56-32.63-221.81-91.88s-91.87-138.02-91.87-221.81S203.06 249.25 262.3 190c59.25-59.25 138.02-91.88 221.81-91.88 83.79 0 162.56 32.63 221.81 91.88 59.25 59.25 91.88 138.02 91.88 221.81s-32.63 162.56-91.88 221.81-138.02 91.87-221.81 91.87z m0-579.36c-70.97 0-137.68 27.64-187.86 77.82s-77.82 116.9-77.82 187.86 27.64 137.68 77.82 187.86c50.18 50.18 116.9 77.82 187.86 77.82 70.97 0 137.68-27.64 187.86-77.82 50.18-50.18 77.82-116.9 77.82-187.86s-27.64-137.68-77.82-187.86c-50.18-50.18-116.89-77.82-187.86-77.82z" p-id="2551"></path><path d="M623.42 976.91H344.8c-40.11 0-72.74-32.63-72.74-72.74v-69.7c0-86.55 70.42-156.97 156.97-156.97h110.16c86.55 0 156.97 70.42 156.97 156.97v69.7c0 40.11-32.63 72.74-72.74 72.74zM429.03 725.5c-60.09 0-108.97 48.88-108.97 108.97v69.7c0 13.64 11.1 24.74 24.74 24.74h278.62c13.64 0 24.74-11.1 24.74-24.74v-69.7c0-60.09-48.88-108.97-108.97-108.97H429.03zM378.15 482.22c-17.56 0-31.8-14.24-31.8-31.8v-91.91c0-17.56 14.24-31.8 31.8-31.8 17.56 0 31.8 14.24 31.8 31.8v91.91c0 17.57-14.24 31.8-31.8 31.8zM595.19 482.22c-17.56 0-31.8-14.24-31.8-31.8v-91.91c0-17.56 14.24-31.8 31.8-31.8 17.56 0 31.8 14.24 31.8 31.8v91.91c-0.01 17.57-14.24 31.8-31.8 31.8z" p-id="2552"></path></svg>