<?xml version="1.0" standalone="no"?><!DOCTYPE svg PUBLIC "-//W3C//DTD SVG 1.1//EN" "http://www.w3.org/Graphics/SVG/1.1/DTD/svg11.dtd"><svg t="1604273911365" class="icon" viewBox="0 0 1024 1024" version="1.1" xmlns="http://www.w3.org/2000/svg" p-id="3224" xmlns:xlink="http://www.w3.org/1999/xlink" width="128" height="128"><defs><style type="text/css"></style></defs><path d="M893.07 855.58H75.16c-13.25 0-24-10.75-24-24V243.46c0-13.25 10.75-24 24-24h817.91c13.25 0 24 10.75 24 24v588.12c0 13.25-10.74 24-24 24z m-793.91-48h769.91V267.46H99.16v540.12z" p-id="3225"></path><path d="M482.47 611.51c-48.11 0-93.3-18.74-127.26-52.76L58.19 261.74a24.01 24.01 0 0 1-7.03-16.97v-1.31c0-13.25 10.75-24 24-24h816.01c9.71 0 18.46 5.85 22.17 14.82s1.66 19.29-5.2 26.16L609.8 558.77c-34.01 34.01-79.23 52.74-127.33 52.74zM131.79 267.46l257.37 257.37c24.91 24.95 58.04 38.68 93.31 38.68 35.28 0 68.45-13.74 93.39-38.68l257.37-257.37H131.79z" p-id="3226"></path></svg>