<?xml version="1.0" standalone="no"?><!DOCTYPE svg PUBLIC "-//W3C//DTD SVG 1.1//EN" "http://www.w3.org/Graphics/SVG/1.1/DTD/svg11.dtd"><svg t="1604273875712" class="icon" viewBox="0 0 1024 1024" version="1.1" xmlns="http://www.w3.org/2000/svg" p-id="2279" xmlns:xlink="http://www.w3.org/1999/xlink" width="128" height="128"><defs><style type="text/css"></style></defs><path d="M903.43 561.52H148.8c-13.25 0-24-10.75-24-24s10.75-24 24-24h754.63c13.25 0 24 10.75 24 24s-10.75 24-24 24zM903.43 204.31H148.8c-13.25 0-24-10.75-24-24s10.75-24 24-24h754.63c13.25 0 24 10.75 24 24s-10.75 24-24 24zM903.43 918.73H148.8c-13.25 0-24-10.75-24-24s10.75-24 24-24h754.63c13.25 0 24 10.75 24 24s-10.75 24-24 24z" p-id="2280"></path></svg>