<?xml version="1.0" standalone="no"?><!DOCTYPE svg PUBLIC "-//W3C//DTD SVG 1.1//EN" "http://www.w3.org/Graphics/SVG/1.1/DTD/svg11.dtd"><svg t="1604273858010" class="icon" viewBox="0 0 1024 1024" version="1.1" xmlns="http://www.w3.org/2000/svg" p-id="1728" xmlns:xlink="http://www.w3.org/1999/xlink" width="128" height="128"><defs><style type="text/css"></style></defs><path d="M693.21 394.17c-5.9 0-11.81-2.16-16.45-6.53-48.94-46.08-109.48-77.26-175.08-90.18-13.01-2.56-21.47-15.18-18.91-28.18 2.56-13.01 15.18-21.47 28.18-18.91 74.48 14.66 143.19 50.05 198.72 102.32 9.65 9.09 10.11 24.28 1.02 33.93a23.943 23.943 0 0 1-17.48 7.55zM418.43 840.17c-30.23 0-59.21-7.07-83.68-20.66-34.2-19-55.76-48.32-60.7-82.56-4.94-34.25 7.44-68.47 34.87-96.36 25.71-26.14 62.01-43.74 102.2-49.54 40.2-5.81 79.99 0.8 112.04 18.61 34.2 18.99 55.76 48.32 60.7 82.56 4.94 34.24-7.44 68.47-34.87 96.36-25.71 26.14-62.01 43.74-102.2 49.54-9.51 1.37-19 2.05-28.36 2.05z m-3.89-225.37l3.43 23.75c-29.87 4.31-56.45 16.99-74.84 35.69-16.67 16.95-24.34 36.79-21.59 55.85s15.71 35.91 36.5 47.46c22.93 12.74 52.01 17.37 81.88 13.06 29.87-4.31 56.45-16.99 74.84-35.69 16.67-16.95 24.34-36.79 21.58-55.85-2.75-19.06-15.71-35.92-36.5-47.46-22.93-12.74-52.01-17.38-81.88-13.06l-3.42-23.75z" p-id="1729"></path><path d="M558.6 708.56c-11.74 0-22-8.62-23.72-20.57l-59.34-410.9c-1.89-13.12 7.2-25.29 20.32-27.18 13.12-1.9 25.29 7.2 27.18 20.32l59.34 410.9c1.89 13.12-7.21 25.29-20.32 27.18-1.16 0.17-2.32 0.25-3.46 0.25z" p-id="1730"></path><path d="M484.11 982.96c-60.12 0-118.46-11.78-173.39-35.01-53.05-22.44-100.68-54.55-141.58-95.45-40.9-40.9-73.02-88.54-95.45-141.58-23.23-54.93-35.01-113.27-35.01-173.39 0-60.12 11.78-118.46 35.01-173.39 22.44-53.05 54.55-100.68 95.45-141.58 40.9-40.9 88.54-73.02 141.58-95.45 54.93-23.23 113.27-35.01 173.39-35.01s118.46 11.78 173.39 35.01c53.05 22.44 100.68 54.55 141.58 95.45 40.9 40.9 73.01 88.54 95.45 141.58 23.23 54.93 35.01 113.27 35.01 173.39 0 60.12-11.78 118.46-35.01 173.39-22.44 53.04-54.55 100.68-95.45 141.58-40.9 40.9-88.54 73.01-141.58 95.45-54.93 23.23-113.27 35.01-173.39 35.01z m0-842.88c-53.66 0-105.71 10.5-154.69 31.22-47.32 20.02-89.83 48.68-126.34 85.18-36.51 36.51-65.17 79.01-85.18 126.34-20.72 48.98-31.22 101.03-31.22 154.69 0 53.67 10.5 105.71 31.22 154.69 20.02 47.32 48.68 89.83 85.18 126.34 36.51 36.51 79.01 65.17 126.34 85.18 48.98 20.72 101.03 31.22 154.69 31.22s105.71-10.5 154.69-31.22c47.32-20.02 89.83-48.68 126.34-85.18s65.17-79.01 85.18-126.34c20.72-48.98 31.22-101.03 31.22-154.69s-10.5-105.71-31.22-154.69c-20.02-47.32-48.68-89.83-85.18-126.34-36.51-36.51-79.01-65.17-126.34-85.18-48.98-20.72-101.03-31.22-154.69-31.22z" p-id="1731"></path></svg>