<?xml version="1.0" standalone="no"?><!DOCTYPE svg PUBLIC "-//W3C//DTD SVG 1.1//EN" "http://www.w3.org/Graphics/SVG/1.1/DTD/svg11.dtd"><svg t="1604273889769" class="icon" viewBox="0 0 1024 1024" version="1.1" xmlns="http://www.w3.org/2000/svg" p-id="2687" xmlns:xlink="http://www.w3.org/1999/xlink" width="128" height="128"><defs><style type="text/css"></style></defs><path d="M866.52 407.83c-13.25 0-24-10.75-24-24V177.69H641.19c-13.25 0-24-10.75-24-24s10.75-24 24-24h225.33c13.25 0 24 10.75 24 24v230.14c0 13.25-10.75 24-24 24zM866.52 945.35H641.19c-13.25 0-24-10.75-24-24s10.75-24 24-24h201.33V697.87c0-13.25 10.75-24 24-24s24 10.75 24 24v223.48c0 13.25-10.75 24-24 24zM98.87 407.83c-13.25 0-24-10.75-24-24V153.69c0-13.25 10.75-24 24-24h228.28c13.25 0 24 10.75 24 24s-10.75 24-24 24H122.87v206.14c0 13.25-10.75 24-24 24zM327.15 945.35H98.87c-13.25 0-24-10.75-24-24V697.87c0-13.25 10.75-24 24-24s24 10.75 24 24v199.48h204.28c13.25 0 24 10.75 24 24s-10.75 24-24 24zM870.67 564.84H97.56c-13.25 0-24-10.75-24-24s10.75-24 24-24h773.11c13.25 0 24 10.75 24 24s-10.75 24-24 24z" p-id="2688"></path></svg>