<?xml version="1.0" standalone="no"?><!DOCTYPE svg PUBLIC "-//W3C//DTD SVG 1.1//EN" "http://www.w3.org/Graphics/SVG/1.1/DTD/svg11.dtd"><svg t="1604273921297" class="icon" viewBox="0 0 1024 1024" version="1.1" xmlns="http://www.w3.org/2000/svg" p-id="3635" xmlns:xlink="http://www.w3.org/1999/xlink" width="128" height="128"><defs><style type="text/css"></style></defs><path d="M484.11 870.15c-48.25 0-95.08-9.46-139.18-28.12-42.58-18.01-80.82-43.8-113.66-76.63-32.83-32.83-58.62-71.08-76.63-113.66-18.66-44.1-28.12-90.93-28.12-139.18 0-72.5 21.53-142.23 62.26-201.63 7.5-10.93 22.43-13.72 33.37-6.22 10.93 7.5 13.72 22.43 6.22 33.37-35.23 51.38-53.84 111.72-53.84 174.49 0 82.68 32.21 160.42 90.69 218.9 58.48 58.48 136.22 90.69 218.9 90.69s160.42-32.21 218.9-90.69c58.48-58.48 90.69-136.22 90.69-218.9 0-58.24-16.22-114.85-46.91-163.73l-0.06-0.09C706.23 283.57 643.38 236.07 569.78 215l-0.1-0.03c-27.65-8.05-56.45-12.12-85.58-12.12-24.15 0-48.02 2.77-70.95 8.23-12.89 3.07-25.84-4.9-28.91-17.79-3.07-12.89 4.9-25.84 17.79-28.91 26.57-6.33 54.18-9.53 82.07-9.53 33.67 0 66.96 4.72 98.97 14.03 85.02 24.36 157.61 79.22 204.4 154.48 35.47 56.52 54.22 121.95 54.22 189.2 0 48.25-9.46 95.08-28.12 139.18-18.01 42.58-43.8 80.82-76.63 113.66s-71.07 58.62-113.66 76.63c-44.09 18.66-90.92 28.12-139.17 28.12z" p-id="3636"></path><path d="M208.57 348.5c-7.29 0-14.21-3.32-18.77-9.04-20.61-25.87-31.51-57.09-31.51-90.3 0-79.96 65.05-145.01 145.01-145.01 25.66 0 50.89 6.81 72.97 19.7 21.36 12.47 39.33 30.31 51.98 51.62 3.9 6.57 4.44 14.62 1.45 21.65a23.994 23.994 0 0 1-16.6 13.97c-75.25 17.64-140.84 62.73-184.7 126.95a24.004 24.004 0 0 1-18.94 10.45c-0.3 0-0.6 0.01-0.89 0.01z m94.73-196.35c-53.49 0-97.01 43.52-97.01 97.01 0 11.04 1.8 21.74 5.29 31.84 41.17-48.57 94.25-85.08 154.1-106.03-17.31-14.48-39.38-22.82-62.38-22.82zM767.13 360.07c-6.29 0-12.57-2.46-17.28-7.34-9.2-9.54-8.92-24.74 0.62-33.94 19.07-18.38 29.57-43.1 29.57-69.62 0-53.49-43.52-97.01-97.01-97.01-35.76 0-68.52 19.6-85.51 51.16-6.28 11.67-20.84 16.04-32.51 9.76-11.67-6.28-16.04-20.84-9.76-32.51 25.37-47.13 74.33-76.4 127.77-76.4 79.96 0 145.01 65.05 145.01 145.01 0 39.67-15.72 76.67-44.25 104.18-4.65 4.48-10.65 6.71-16.65 6.71zM257.53 970.89c-3.13 0-6.31-0.62-9.37-1.92-12.2-5.18-17.89-19.27-12.71-31.47l61.41-144.55c5.18-12.2 19.28-17.89 31.47-12.7 12.2 5.18 17.89 19.27 12.71 31.47l-61.41 144.55c-3.88 9.13-12.76 14.62-22.1 14.62zM720.93 970.89c-9.34 0-18.22-5.48-22.1-14.62l-61.41-144.55c-5.18-12.2 0.5-26.29 12.7-31.47s26.29 0.5 31.47 12.7L743 937.5c5.18 12.2-0.5 26.29-12.7 31.47a23.92 23.92 0 0 1-9.37 1.92zM570.01 622.4c-6.14 0-12.28-2.34-16.97-7.03l-85.9-85.9a24.01 24.01 0 0 1-7.03-16.97V336.07c0-13.25 10.75-24 24-24s24 10.75 24 24v166.49l78.87 78.87c9.37 9.37 9.37 24.57 0 33.94a23.919 23.919 0 0 1-16.97 7.03z" p-id="3637"></path></svg>