<?xml version="1.0" standalone="no"?><!DOCTYPE svg PUBLIC "-//W3C//DTD SVG 1.1//EN" "http://www.w3.org/Graphics/SVG/1.1/DTD/svg11.dtd"><svg t="1604273880382" class="icon" viewBox="0 0 1024 1024" version="1.1" xmlns="http://www.w3.org/2000/svg" p-id="2413" xmlns:xlink="http://www.w3.org/1999/xlink" width="128" height="128"><defs><style type="text/css"></style></defs><path d="M784.12 943.64c-7.63 0-15.12-3.63-19.78-10.38L612.42 712.87c-7.52-10.91-4.77-25.86 6.14-33.38 10.91-7.53 25.86-4.77 33.38 6.14l151.92 220.39c7.52 10.91 4.77 25.86-6.14 33.38-4.16 2.87-8.9 4.24-13.6 4.24z" p-id="2414"></path><path d="M473.02 757.2c-83.58 0-162.15-32.55-221.25-91.65-59.1-59.1-91.65-137.67-91.65-221.25 0-83.58 32.55-162.15 91.65-221.25 59.1-59.1 137.68-91.65 221.25-91.65s162.15 32.55 221.25 91.65c59.1 59.1 91.65 137.67 91.65 221.25 0 83.58-32.55 162.16-91.65 221.25-59.1 59.1-137.67 91.65-221.25 91.65z m0-577.8c-70.76 0-137.28 27.55-187.31 77.59-50.03 50.03-77.59 116.56-77.59 187.31 0 70.76 27.55 137.28 77.59 187.31 50.03 50.03 116.56 77.59 187.31 77.59s137.28-27.55 187.31-77.59c50.03-50.03 77.59-116.56 77.59-187.31 0-70.76-27.55-137.28-77.59-187.31-50.03-50.04-116.55-77.59-187.31-77.59z" p-id="2415"></path></svg>