<?xml version="1.0" standalone="no"?><!DOCTYPE svg PUBLIC "-//W3C//DTD SVG 1.1//EN" "http://www.w3.org/Graphics/SVG/1.1/DTD/svg11.dtd"><svg t="1604829716058" class="icon" viewBox="0 0 1024 1024" version="1.1" xmlns="http://www.w3.org/2000/svg" p-id="1086" xmlns:xlink="http://www.w3.org/1999/xlink" width="128" height="128"><defs><style type="text/css"></style></defs><path d="M416.32 576.448a32 32 0 0 1 32 32V755.2a32 32 0 0 1-54.656 22.656l-50.176-50.24-224.96 223.168a32 32 0 1 1-45.056-45.44l224.768-222.976-51.328-51.264a32 32 0 0 1 22.656-54.656h146.752z m534.592-503.04a32 32 0 0 1-0.128 45.248L726.208 342.4l51.456 51.52a32 32 0 0 1-22.656 54.592H608.32a32 32 0 0 1-32-32V269.76a32 32 0 0 1 54.592-22.656l50.048 49.984 224.64-223.744a32 32 0 0 1 45.312 0.064z" p-id="1087" fill="#2c2c2c"></path></svg>