<?xml version="1.0" standalone="no"?><!DOCTYPE svg PUBLIC "-//W3C//DTD SVG 1.1//EN" "http://www.w3.org/Graphics/SVG/1.1/DTD/svg11.dtd"><svg t="1604273904172" class="icon" viewBox="0 0 1024 1024" version="1.1" xmlns="http://www.w3.org/2000/svg" p-id="2954" xmlns:xlink="http://www.w3.org/1999/xlink" width="128" height="128"><defs><style type="text/css"></style></defs><path d="M782.7 847.32H241.22c-78.06 0-141.56-63.5-141.56-141.56 0-51.9 42.22-94.12 94.12-94.12h28.46V378.73c0-77.39 30.14-150.14 84.86-204.86 54.72-54.72 127.48-84.86 204.86-84.86s150.14 30.14 204.86 84.86c54.72 54.72 84.86 127.48 84.86 204.86v232.91h28.46c51.9 0 94.12 42.22 94.12 94.12 0 78.06-63.5 141.56-141.56 141.56zM193.78 659.64c-25.43 0-46.12 20.69-46.12 46.12 0 51.59 41.97 93.56 93.56 93.56H782.7c51.59 0 93.56-41.97 93.56-93.56 0-25.43-20.69-46.12-46.12-46.12h-35.13c-22.79 0-41.33-18.54-41.33-41.32V378.73c0-64.56-25.14-125.27-70.8-170.92-45.66-45.66-106.36-70.8-170.92-70.8-64.56 0-125.27 25.14-170.92 70.8-45.66 45.66-70.8 106.36-70.8 170.92v239.58c0 22.79-18.54 41.33-41.33 41.33h-35.13z" p-id="2955"></path><path d="M512.04 935.4c-49.62 0-89.98-40.37-89.98-89.98 0-10.65 1.83-20.92 5.43-30.52 4.66-12.41 18.49-18.69 30.9-14.04 12.41 4.66 18.7 18.49 14.04 30.9-1.59 4.25-2.37 8.72-2.37 13.66 0 23.15 18.83 41.98 41.98 41.98 23.07 0 41.83-18.83 41.83-41.98 0-4.94-0.78-9.41-2.37-13.66-4.66-12.41 1.63-26.25 14.04-30.9 12.41-4.66 26.25 1.63 30.9 14.04 3.6 9.6 5.43 19.87 5.43 30.52 0 49.62-40.3 89.98-89.83 89.98z" p-id="2956"></path></svg>