<?xml version="1.0" standalone="no"?><!DOCTYPE svg PUBLIC "-//W3C//DTD SVG 1.1//EN" "http://www.w3.org/Graphics/SVG/1.1/DTD/svg11.dtd"><svg t="1604273822095" class="icon" viewBox="0 0 1024 1024" version="1.1" xmlns="http://www.w3.org/2000/svg" p-id="1048" xmlns:xlink="http://www.w3.org/1999/xlink" width="128" height="128"><defs><style type="text/css"></style></defs><path d="M311.81 920.8H189.07c-49.43 0-89.64-40.21-89.64-89.64V174.52c0-49.43 40.21-89.64 89.64-89.64H669.3c49.43 0 89.64 40.21 89.64 89.64v103.49c0 13.25-10.75 24-24 24s-24-10.75-24-24V174.52c0-22.96-18.68-41.64-41.64-41.64H189.07c-22.96 0-41.64 18.68-41.64 41.64v656.64c0 22.96 18.68 41.64 41.64 41.64h122.74c13.25 0 24 10.75 24 24s-10.75 24-24 24z" p-id="1049"></path><path d="M656.06 939.53c-71.7 0-139.11-27.92-189.82-78.62-50.7-50.7-78.62-118.11-78.62-189.82s27.92-139.11 78.62-189.82c50.7-50.7 118.11-78.62 189.82-78.62s139.11 27.92 189.82 78.62c50.7 50.7 78.62 118.11 78.62 189.82s-27.92 139.11-78.62 189.82c-50.71 50.7-118.12 78.62-189.82 78.62z m0-488.88c-58.88 0-114.24 22.93-155.87 64.57-41.64 41.64-64.57 96.99-64.57 155.87s22.93 114.24 64.57 155.88 96.99 64.57 155.87 64.57 114.24-22.93 155.88-64.57 64.57-96.99 64.57-155.88-22.93-114.24-64.57-155.87c-41.64-41.64-97-64.57-155.88-64.57zM598.6 302.04H224.65c-13.25 0-24-10.75-24-24s10.75-24 24-24H598.6c13.25 0 24 10.75 24 24s-10.75 24-24 24zM345.55 470.93H227.46c-13.25 0-24-10.75-24-24s10.75-24 24-24h118.09c13.25 0 24 10.75 24 24s-10.75 24-24 24z" p-id="1050"></path><path d="M730.73 779.69c-5.03 0-10.11-1.58-14.44-4.84l-77.24-58.29c-19.68-14.86-28.8-39.97-23.23-63.98l28.1-121.41c2.99-12.91 15.88-20.96 28.79-17.97 12.91 2.99 20.96 15.88 17.97 28.79l-28.1 121.42a14.52 14.52 0 0 0 5.39 14.84l77.23 58.29c10.58 7.98 12.68 23.03 4.7 33.61-4.71 6.25-11.9 9.54-19.17 9.54z" p-id="1051"></path></svg>