<?xml version="1.0" standalone="no"?><!DOCTYPE svg PUBLIC "-//W3C//DTD SVG 1.1//EN" "http://www.w3.org/Graphics/SVG/1.1/DTD/svg11.dtd"><svg t="1604273866818" class="icon" viewBox="0 0 1024 1024" version="1.1" xmlns="http://www.w3.org/2000/svg" p-id="2003" xmlns:xlink="http://www.w3.org/1999/xlink" width="128" height="128"><defs><style type="text/css"></style></defs><path d="M512.06 782.72c-25.49 0-50.37-1.86-73.94-5.54-13.1-2.04-22.06-14.31-20.02-27.41 2.04-13.1 14.31-22.06 27.41-20.02 21.14 3.29 43.53 4.96 66.55 4.96 204.61 0 371.07-135.2 371.07-301.39 0-166.29-166.46-301.57-371.07-301.57-204.71 0-371.26 135.28-371.26 301.57 0 42.69 10.8 83.93 32.1 122.59 20.81 37.78 50.5 71.17 88.23 99.25 10.63 7.91 12.84 22.95 4.93 33.58-7.91 10.63-22.95 12.84-33.58 4.93-43.28-32.21-77.47-70.76-101.62-114.59-25.26-45.83-38.06-94.87-38.06-145.75 0-47.81 11.35-94.14 33.72-137.7 21.41-41.69 51.97-79.06 90.81-111.05 78.95-65.02 183.61-100.82 294.72-100.82 111.1 0 215.74 35.81 294.63 100.83 38.82 31.99 69.35 69.35 90.75 111.05 22.35 43.56 33.69 89.89 33.69 137.69 0 47.77-11.33 94.06-33.69 137.59-21.4 41.67-51.93 79.02-90.75 110.99-78.89 65.01-183.53 100.81-294.62 100.81z" p-id="2004"></path><path d="M227 940.69c-10.38 0-20.82-2.98-30.21-9-20.57-13.19-30-37.06-24.03-60.81l50.77-202.3c3.23-12.86 16.27-20.66 29.12-17.44 12.86 3.23 20.66 16.26 17.44 29.12l-50.77 202.31c-1.17 4.66 1.19 7.31 3.39 8.71 2.15 1.38 5.47 2.41 9.08-0.49l195.05-156.07c10.35-8.28 25.45-6.61 33.73 3.75 8.28 10.35 6.6 25.45-3.74 33.73L261.79 928.25c-10.28 8.26-22.5 12.44-34.79 12.44z" p-id="2005"></path></svg>