<?xml version="1.0" standalone="no"?><!DOCTYPE svg PUBLIC "-//W3C//DTD SVG 1.1//EN" "http://www.w3.org/Graphics/SVG/1.1/DTD/svg11.dtd"><svg t="1604273936857" class="icon" viewBox="0 0 1024 1024" version="1.1" xmlns="http://www.w3.org/2000/svg" p-id="4182" xmlns:xlink="http://www.w3.org/1999/xlink" width="128" height="128"><defs><style type="text/css"></style></defs><path d="M223.61 945.9c-61.62 0-111.76-50.14-111.76-111.76V190.29c0-61.62 50.14-111.76 111.76-111.76l447.74-0.01c61.62 0 111.76 50.14 111.76 111.76v63.43c0 13.25-10.75 24-24 24s-24-10.75-24-24v-63.43c0-35.16-28.6-63.76-63.76-63.76l-447.74 0.01c-35.16 0-63.76 28.6-63.76 63.76v643.85c0 35.16 28.6 63.76 63.76 63.76l447.74-0.01c35.16 0 63.76-28.6 63.76-63.76V749.8c0-13.25 10.75-24 24-24s24 10.75 24 24v84.33c0 61.62-50.14 111.76-111.76 111.76l-447.74 0.01z" p-id="4183"></path><path d="M888.08 536.2H422.87c-13.25 0-24-10.75-24-24s10.75-24 24-24h465.21c13.25 0 24 10.75 24 24s-10.75 24-24 24z" p-id="4184"></path><path d="M696.55 727.73c-6.14 0-12.28-2.34-16.97-7.03-9.37-9.37-9.37-24.57 0-33.94L854.14 512.2 679.58 337.64c-9.37-9.37-9.37-24.57 0-33.94 9.37-9.37 24.57-9.37 33.94 0l191.53 191.53c9.37 9.37 9.37 24.57 0 33.94L713.52 720.7a23.919 23.919 0 0 1-16.97 7.03z" p-id="4185"></path></svg>