<?xml version="1.0" standalone="no"?><!DOCTYPE svg PUBLIC "-//W3C//DTD SVG 1.1//EN" "http://www.w3.org/Graphics/SVG/1.1/DTD/svg11.dtd"><svg t="1604273914977" class="icon" viewBox="0 0 1024 1024" version="1.1" xmlns="http://www.w3.org/2000/svg" p-id="3361" xmlns:xlink="http://www.w3.org/1999/xlink" width="128" height="128"><defs><style type="text/css"></style></defs><path d="M484.12 630.51c-105.18 0-206.55-29.74-285.44-83.73C118.88 492.16 67.6 416.83 54.3 334.67c-2.12-13.08 6.77-25.41 19.85-27.53 13.09-2.12 25.41 6.77 27.53 19.85 11.18 69.06 55.26 133.05 124.11 180.18 70.98 48.58 162.72 75.34 258.33 75.34 95.65 0 187.41-26.76 258.37-75.34 68.82-47.11 112.88-111.1 124.07-180.18 2.12-13.08 14.44-21.97 27.53-19.85 13.08 2.12 21.97 14.44 19.85 27.53-13.31 82.17-64.57 157.5-144.33 212.11-78.87 53.99-180.26 83.73-285.49 83.73z" p-id="3362"></path><path d="M107.7 630.94c-4.73 0-9.51-1.4-13.69-4.31-10.88-7.57-13.56-22.53-5.98-33.41l72.69-104.41c7.57-10.88 22.53-13.56 33.41-5.98 10.88 7.57 13.56 22.53 5.98 33.41l-72.69 104.41c-4.67 6.7-12.13 10.29-19.72 10.29zM890.26 630.94c-7.59 0-15.06-3.59-19.73-10.3l-84.07-120.92c-7.57-10.88-4.88-25.84 6-33.41 10.89-7.57 25.84-4.88 33.41 6.01l84.07 120.92c7.57 10.88 4.88 25.84-6 33.41-4.18 2.9-8.95 4.29-13.68 4.29zM498.34 768.21c-13.25 0-24-10.75-24-24V606.37c0-13.25 10.75-24 24-24s24 10.75 24 24v137.84c0 13.25-10.75 24-24 24zM280.83 723.13c-2.86 0-5.77-0.51-8.6-1.6-12.37-4.75-18.55-18.63-13.8-31.01l44.95-117.08c4.75-12.38 18.63-18.56 31.01-13.8 12.37 4.75 18.55 18.63 13.8 31.01l-44.95 117.08c-3.66 9.54-12.76 15.4-22.41 15.4zM721.83 723.13c-9.64 0-18.73-5.85-22.4-15.39L650.2 579.85c-4.76-12.37 1.41-26.26 13.78-31.02 12.37-4.76 26.26 1.41 31.02 13.78l49.22 127.89c4.76 12.37-1.41 26.26-13.78 31.02a23.944 23.944 0 0 1-8.61 1.61z" p-id="3363"></path></svg>