<?xml version="1.0" standalone="no"?><!DOCTYPE svg PUBLIC "-//W3C//DTD SVG 1.1//EN" "http://www.w3.org/Graphics/SVG/1.1/DTD/svg11.dtd"><svg t="1604273830528" class="icon" viewBox="0 0 1024 1024" version="1.1" xmlns="http://www.w3.org/2000/svg" p-id="1321" xmlns:xlink="http://www.w3.org/1999/xlink" width="128" height="128"><defs><style type="text/css"></style></defs><path d="M845.12 561.52H123.11c-13.25 0-24-10.75-24-24s10.75-24 24-24h722.01c13.25 0 24 10.75 24 24s-10.74 24-24 24zM845.12 200.51H123.11c-13.25 0-24-10.75-24-24s10.75-24 24-24h722.01c13.25 0 24 10.75 24 24s-10.74 24-24 24zM845.12 922.53H123.11c-13.25 0-24-10.75-24-24s10.75-24 24-24h722.01c13.25 0 24 10.75 24 24s-10.74 24-24 24z" p-id="1322"></path><path d="M656.36 537.52m-90.47 0a90.47 90.47 0 1 0 180.94 0 90.47 90.47 0 1 0-180.94 0Z" p-id="1323"></path></svg>